<svg xmlns="http://www.w3.org/2000/svg" xmlns:xlink="http://www.w3.org/1999/xlink" width="500" zoomAndPan="magnify" viewBox="0 0 375 374.999991" height="500" preserveAspectRatio="xMidYMid meet" version="1.0"><defs><clipPath id="3ccfda2e9b"><path d="M 102 118.285156 L 273 118.285156 L 273 257 L 102 257 Z M 102 118.285156 " clip-rule="nonzero"/></clipPath></defs><g clip-path="url(#3ccfda2e9b)"><path fill="#000000" d="M 146.65625 118.285156 L 252.476562 118.285156 C 265.21875 118.285156 274.597656 130.222656 271.582031 142.605469 L 247.445312 241.691406 C 247.1875 242.753906 246.839844 243.789062 246.410156 244.792969 C 245.980469 245.796875 245.46875 246.761719 244.875 247.679688 C 244.285156 248.601562 243.621094 249.464844 242.882812 250.277344 C 242.148438 251.085938 241.351562 251.828125 240.488281 252.503906 C 239.628906 253.179688 238.71875 253.78125 237.757812 254.304688 C 236.796875 254.828125 235.800781 255.269531 234.769531 255.625 C 233.734375 255.984375 232.675781 256.253906 231.597656 256.433594 C 230.519531 256.617188 229.433594 256.707031 228.339844 256.707031 L 122.519531 256.707031 C 109.777344 256.707031 100.398438 244.765625 103.414062 232.382812 L 127.550781 133.300781 C 127.808594 132.238281 128.152344 131.203125 128.585938 130.199219 C 129.015625 129.191406 129.527344 128.230469 130.117188 127.308594 C 130.710938 126.386719 131.375 125.523438 132.109375 124.714844 C 132.847656 123.90625 133.644531 123.160156 134.503906 122.484375 C 135.363281 121.808594 136.277344 121.210938 137.234375 120.6875 C 138.195312 120.160156 139.191406 119.722656 140.226562 119.363281 C 141.261719 119.003906 142.316406 118.738281 143.398438 118.554688 C 144.476562 118.375 145.5625 118.285156 146.65625 118.285156 Z M 146.65625 118.285156 " fill-opacity="1" fill-rule="nonzero"/></g><path fill="#ffde59" d="M 182.234375 227.210938 C 176.566406 227.210938 171.972656 226.28125 168.449219 224.421875 C 164.929688 222.5625 162.601562 219.84375 161.460938 216.269531 C 160.3125 212.699219 160.40625 208.34375 161.734375 203.207031 C 162.449219 200.667969 163.246094 197.964844 164.121094 195.101562 C 164.996094 192.234375 165.859375 189.503906 166.710938 186.90625 C 168.484375 181.886719 171.035156 177.636719 174.367188 174.148438 C 177.699219 170.664062 181.699219 168.007812 186.371094 166.175781 C 191.046875 164.347656 196.160156 163.433594 201.710938 163.429688 C 206.1875 163.429688 209.992188 163.976562 213.113281 165.070312 C 216.238281 166.164062 218.703125 167.625 220.503906 169.453125 C 222.296875 171.285156 223.472656 173.292969 224.03125 175.480469 C 224.597656 177.640625 224.582031 179.792969 223.984375 181.945312 C 223.867188 182.511719 223.566406 182.953125 223.085938 183.273438 C 222.625 183.621094 222.109375 183.796875 221.535156 183.804688 L 208.46875 183.804688 C 207.808594 183.804688 207.347656 183.703125 207.085938 183.496094 C 206.789062 183.25 206.601562 182.941406 206.519531 182.566406 C 206.339844 181.582031 206.011719 180.648438 205.535156 179.769531 C 205.027344 178.792969 204.179688 177.953125 202.996094 177.246094 C 201.808594 176.542969 200.082031 176.1875 197.816406 176.1875 C 194.414062 176.1875 191.472656 177.070312 188.992188 178.84375 C 186.511719 180.613281 184.585938 183.449219 183.21875 187.347656 C 181.488281 192.425781 179.921875 197.566406 178.515625 202.761719 C 177.433594 206.898438 177.625 209.878906 179.09375 211.707031 C 180.5625 213.535156 182.972656 214.453125 186.316406 214.453125 C 188.519531 214.46875 190.648438 214.085938 192.707031 213.304688 C 194.738281 212.519531 196.492188 211.324219 197.964844 209.714844 C 199.472656 208.09375 200.613281 206.011719 201.390625 203.46875 L 201.90625 201.789062 L 193.488281 201.789062 C 192.832031 201.789062 192.347656 201.566406 192.035156 201.117188 C 191.722656 200.675781 191.664062 200.132812 191.867188 199.480469 L 193.871094 192.929688 C 194.082031 192.25 194.472656 191.707031 195.046875 191.289062 C 195.585938 190.851562 196.207031 190.628906 196.902344 190.617188 L 219.453125 190.617188 C 220.105469 190.617188 220.578125 190.84375 220.859375 191.289062 C 221.140625 191.730469 221.1875 192.28125 220.988281 192.929688 L 217.902344 203.027344 C 216.351562 208.109375 213.863281 212.449219 210.4375 216.054688 C 207.007812 219.65625 202.867188 222.417969 198.015625 224.335938 C 193.160156 226.253906 187.902344 227.214844 182.234375 227.210938 Z M 182.234375 227.210938 " fill-opacity="1" fill-rule="nonzero"/><path fill="#ffde59" d="M 201.085938 141.714844 C 192.542969 141.714844 184.671875 143.125 177.472656 145.941406 C 170.273438 148.761719 164.113281 152.851562 158.984375 158.214844 C 153.851562 163.582031 149.925781 170.125 147.199219 177.851562 C 145.886719 181.851562 144.558594 186.058594 143.210938 190.464844 C 142.503906 192.789062 141.828125 195.042969 141.195312 197.21875 C 141.148438 197.375 141.125 197.53125 141.113281 197.691406 C 141.105469 197.851562 141.117188 198.011719 141.144531 198.167969 C 141.175781 198.328125 141.222656 198.480469 141.285156 198.628906 C 141.347656 198.773438 141.429688 198.914062 141.527344 199.039062 C 141.621094 199.167969 141.734375 199.285156 141.855469 199.386719 C 141.980469 199.492188 142.113281 199.578125 142.257812 199.648438 C 142.402344 199.722656 142.550781 199.777344 142.707031 199.8125 C 142.863281 199.847656 143.023438 199.867188 143.183594 199.867188 L 155.867188 199.867188 C 156.324219 199.867188 156.738281 199.730469 157.105469 199.453125 C 157.472656 199.179688 157.722656 198.820312 157.851562 198.378906 C 158.382812 196.550781 158.949219 194.644531 159.554688 192.667969 C 160.492188 189.585938 161.421875 186.648438 162.339844 183.851562 C 164.242188 178.457031 166.988281 173.882812 170.570312 170.132812 C 174.15625 166.382812 178.460938 163.527344 183.492188 161.558594 C 188.519531 159.589844 194.019531 158.605469 199.988281 158.601562 C 203.140625 158.601562 206.285156 158.550781 208.960938 158.90625 C 209.289062 158.953125 209.613281 158.9375 209.9375 158.863281 C 210.261719 158.785156 210.558594 158.65625 210.832031 158.46875 C 211.105469 158.28125 211.339844 158.054688 211.527344 157.78125 C 211.714844 157.507812 211.847656 157.210938 211.925781 156.890625 L 214.570312 145.886719 C 214.65625 145.53125 214.667969 145.171875 214.605469 144.8125 C 214.546875 144.453125 214.414062 144.121094 214.214844 143.8125 C 214.015625 143.507812 213.765625 143.25 213.460938 143.046875 C 213.160156 142.84375 212.828125 142.710938 212.46875 142.644531 C 209.054688 142.027344 205.261719 141.71875 201.085938 141.714844 Z M 201.085938 141.714844 " fill-opacity="1" fill-rule="nonzero"/></svg>