<svg xmlns="http://www.w3.org/2000/svg" xmlns:xlink="http://www.w3.org/1999/xlink" width="500" zoomAndPan="magnify" viewBox="0 0 375 374.999991" height="500" preserveAspectRatio="xMidYMid meet" version="1.0"><defs><g/><clipPath id="a4278dcf34"><path d="M 137 100.722656 L 238 100.722656 L 238 181.722656 L 137 181.722656 Z M 137 100.722656 " clip-rule="nonzero"/></clipPath></defs><g clip-path="url(#a4278dcf34)"><path fill="#000000" d="M 163.589844 100.722656 L 225.527344 100.722656 C 232.988281 100.722656 238.476562 107.710938 236.710938 114.957031 L 222.585938 172.957031 C 222.433594 173.578125 222.230469 174.183594 221.980469 174.773438 C 221.726562 175.363281 221.425781 175.925781 221.082031 176.464844 C 220.734375 177.003906 220.347656 177.507812 219.914062 177.984375 C 219.484375 178.457031 219.015625 178.890625 218.515625 179.289062 C 218.011719 179.683594 217.476562 180.035156 216.914062 180.339844 C 216.351562 180.648438 215.769531 180.90625 215.164062 181.113281 C 214.558594 181.324219 213.941406 181.480469 213.308594 181.589844 C 212.675781 181.695312 212.042969 181.746094 211.402344 181.746094 L 149.460938 181.746094 C 142.003906 181.746094 136.511719 174.757812 138.277344 167.507812 L 152.40625 109.511719 C 152.558594 108.890625 152.757812 108.285156 153.011719 107.695312 C 153.265625 107.109375 153.5625 106.542969 153.910156 106.003906 C 154.253906 105.46875 154.644531 104.960938 155.074219 104.488281 C 155.507812 104.011719 155.972656 103.578125 156.476562 103.183594 C 156.980469 102.789062 157.511719 102.4375 158.074219 102.128906 C 158.636719 101.824219 159.222656 101.5625 159.828125 101.355469 C 160.433594 101.144531 161.050781 100.988281 161.679688 100.882812 C 162.3125 100.777344 162.949219 100.722656 163.589844 100.722656 Z M 163.589844 100.722656 " fill-opacity="1" fill-rule="nonzero"/></g><path fill="#ffde59" d="M 184.414062 164.484375 C 181.097656 164.484375 178.40625 163.9375 176.347656 162.851562 C 174.285156 161.761719 172.921875 160.171875 172.253906 158.078125 C 171.582031 155.988281 171.636719 153.4375 172.414062 150.429688 C 172.835938 148.945312 173.300781 147.363281 173.8125 145.6875 C 174.324219 144.007812 174.828125 142.410156 175.328125 140.890625 C 176.367188 137.953125 177.859375 135.464844 179.808594 133.421875 C 181.757812 131.382812 184.101562 129.828125 186.835938 128.757812 C 189.574219 127.6875 192.566406 127.148438 195.8125 127.148438 C 198.4375 127.148438 200.660156 127.46875 202.488281 128.109375 C 204.316406 128.75 205.761719 129.605469 206.816406 130.675781 C 207.863281 131.746094 208.554688 132.921875 208.882812 134.203125 C 209.210938 135.464844 209.203125 136.726562 208.851562 137.984375 C 208.785156 138.316406 208.609375 138.578125 208.324219 138.765625 C 208.058594 138.96875 207.753906 139.070312 207.417969 139.074219 L 199.769531 139.074219 C 199.382812 139.074219 199.113281 139.015625 198.960938 138.894531 C 198.789062 138.75 198.675781 138.570312 198.628906 138.347656 C 198.523438 137.773438 198.332031 137.226562 198.054688 136.710938 C 197.757812 136.140625 197.261719 135.648438 196.566406 135.238281 C 195.871094 134.824219 194.859375 134.617188 193.535156 134.617188 C 191.542969 134.617188 189.824219 135.132812 188.371094 136.171875 C 186.917969 137.207031 185.792969 138.867188 184.992188 141.148438 C 183.976562 144.121094 183.058594 147.128906 182.238281 150.171875 C 181.605469 152.589844 181.71875 154.335938 182.578125 155.40625 C 183.4375 156.476562 184.847656 157.015625 186.804688 157.015625 C 188.09375 157.023438 189.339844 156.800781 190.542969 156.34375 C 191.734375 155.882812 192.757812 155.183594 193.621094 154.242188 C 194.503906 153.292969 195.171875 152.074219 195.628906 150.585938 L 195.929688 149.601562 L 191 149.601562 C 190.617188 149.601562 190.335938 149.472656 190.152344 149.210938 C 189.96875 148.949219 189.933594 148.632812 190.054688 148.25 L 191.226562 144.414062 C 191.347656 144.019531 191.578125 143.699219 191.914062 143.457031 C 192.230469 143.199219 192.59375 143.070312 193 143.0625 L 206.199219 143.0625 C 206.582031 143.0625 206.859375 143.195312 207.023438 143.457031 C 207.1875 143.714844 207.214844 144.035156 207.097656 144.414062 L 205.292969 150.328125 C 204.386719 153.300781 202.929688 155.84375 200.921875 157.949219 C 198.914062 160.058594 196.492188 161.675781 193.652344 162.800781 C 190.8125 163.921875 187.730469 164.484375 184.414062 164.484375 Z M 184.414062 164.484375 " fill-opacity="1" fill-rule="nonzero"/><path fill="#ffde59" d="M 195.449219 114.4375 C 190.449219 114.4375 185.84375 115.261719 181.628906 116.914062 C 177.414062 118.5625 173.804688 120.957031 170.804688 124.097656 C 167.800781 127.238281 165.503906 131.066406 163.90625 135.589844 C 163.140625 137.933594 162.359375 140.394531 161.574219 142.972656 C 161.15625 144.335938 160.765625 145.652344 160.394531 146.925781 C 160.339844 147.109375 160.328125 147.296875 160.363281 147.484375 C 160.398438 147.671875 160.472656 147.839844 160.585938 147.992188 C 160.703125 148.144531 160.84375 148.265625 161.015625 148.351562 C 161.183594 148.433594 161.367188 148.476562 161.554688 148.476562 L 168.980469 148.476562 C 169.25 148.476562 169.492188 148.398438 169.707031 148.234375 C 169.921875 148.074219 170.066406 147.863281 170.140625 147.605469 C 170.453125 146.535156 170.785156 145.421875 171.136719 144.261719 C 171.6875 142.460938 172.234375 140.738281 172.769531 139.101562 C 173.882812 135.945312 175.488281 133.265625 177.585938 131.074219 C 179.683594 128.878906 182.207031 127.203125 185.148438 126.054688 C 188.09375 124.902344 191.3125 124.324219 194.808594 124.324219 C 196.652344 124.324219 198.492188 124.292969 200.058594 124.5 C 200.25 124.527344 200.441406 124.519531 200.628906 124.476562 C 200.820312 124.429688 200.992188 124.355469 201.15625 124.246094 C 201.316406 124.136719 201.449219 124 201.558594 123.84375 C 201.671875 123.683594 201.75 123.507812 201.792969 123.320312 L 203.34375 116.878906 C 203.390625 116.671875 203.398438 116.460938 203.363281 116.25 C 203.328125 116.039062 203.25 115.84375 203.136719 115.667969 C 203.019531 115.488281 202.871094 115.335938 202.695312 115.21875 C 202.515625 115.101562 202.320312 115.019531 202.109375 114.980469 C 200.113281 114.621094 197.894531 114.441406 195.449219 114.4375 Z M 195.449219 114.4375 " fill-opacity="1" fill-rule="nonzero"/><g fill="#000000" fill-opacity="1"><g transform="translate(106.953431, 234.271888)"><g><path d="M 15.730469 0.578125 C 18.832031 0.578125 22.226562 -0.0429688 25.207031 -1.324219 L 27.484375 -15.769531 L 21.523438 -15.769531 L 19.867188 -5.464844 C 18.917969 -5.089844 17.757812 -4.882812 16.390625 -4.882812 C 12.417969 -4.882812 7.035156 -6.746094 8.238281 -14.28125 C 9.3125 -21.191406 15.355469 -24.007812 20.28125 -24.007812 C 23.222656 -24.007812 25.910156 -23.304688 27.609375 -21.9375 L 28.519531 -27.609375 C 26.160156 -28.808594 23.222656 -29.554688 19.785156 -29.554688 C 12.375 -29.554688 3.601562 -25.332031 1.945312 -14.984375 C 0.25 -4.140625 7.742188 0.578125 15.730469 0.578125 Z M 15.730469 0.578125 "/></g></g></g><g fill="#000000" fill-opacity="1"><g transform="translate(133.85685, 234.271888)"><g><path d="M -1.78125 0 L 4.800781 0 L 7.742188 -5.382812 L 21.027344 -5.382812 L 22.269531 0 L 28.5625 0 L 21.359375 -28.972656 L 14.613281 -28.972656 Z M 10.554688 -10.597656 L 16.183594 -20.777344 C 16.558594 -21.441406 16.886719 -22.1875 17.261719 -23.261719 C 17.300781 -22.1875 17.382812 -21.398438 17.550781 -20.738281 L 19.867188 -10.597656 Z M 10.554688 -10.597656 "/></g></g></g><g fill="#000000" fill-opacity="1"><g transform="translate(162.41587, 234.271888)"><g><path d="M 10.96875 0.578125 C 16.765625 0.578125 22.019531 -1.242188 23.136719 -7.492188 C 24.875 -17.632812 9.066406 -16.351562 9.644531 -21.277344 C 9.894531 -23.179688 11.796875 -24.050781 15.109375 -24.089844 C 17.921875 -24.132812 20.945312 -23.34375 23.261719 -21.566406 L 24.089844 -27.152344 C 21.898438 -28.5625 18.503906 -29.554688 14.941406 -29.554688 C 9.5625 -29.554688 4.222656 -27.152344 3.351562 -21.773438 C 1.78125 -11.671875 17.632812 -13.371094 16.765625 -7.699219 C 16.472656 -5.710938 14.199219 -4.882812 10.804688 -4.882812 C 7.65625 -4.882812 4.261719 -5.671875 1.28125 -7.863281 L 0.371094 -2.109375 C 3.0625 -0.457031 6.789062 0.578125 10.96875 0.578125 Z M 10.96875 0.578125 "/></g></g></g><g fill="#000000" fill-opacity="1"><g transform="translate(185.345818, 234.271888)"><g><path d="M 15.398438 0.578125 C 18.253906 0.578125 21.234375 0.0429688 23.71875 -1.160156 L 24.667969 -7.367188 C 22.476562 -5.878906 19.621094 -4.96875 16.722656 -4.96875 C 11.960938 -4.96875 7.160156 -7.949219 8.195312 -14.488281 C 9.273438 -21.277344 15.316406 -24.007812 20.28125 -24.007812 C 22.808594 -24.007812 25.207031 -23.261719 26.78125 -21.898438 L 27.648438 -27.441406 C 25.332031 -28.851562 22.722656 -29.554688 19.539062 -29.554688 C 12.542969 -29.554688 3.519531 -24.960938 1.945312 -15.066406 C 0.25 -4.46875 7.949219 0.578125 15.398438 0.578125 Z M 15.398438 0.578125 "/></g></g></g><g fill="#000000" fill-opacity="1"><g transform="translate(210.221109, 234.271888)"><g><path d="M -1.78125 0 L 4.800781 0 L 7.742188 -5.382812 L 21.027344 -5.382812 L 22.269531 0 L 28.5625 0 L 21.359375 -28.972656 L 14.613281 -28.972656 Z M 10.554688 -10.597656 L 16.183594 -20.777344 C 16.558594 -21.441406 16.886719 -22.1875 17.261719 -23.261719 C 17.300781 -22.1875 17.382812 -21.398438 17.550781 -20.738281 L 19.867188 -10.597656 Z M 10.554688 -10.597656 "/></g></g></g><g fill="#000000" fill-opacity="1"><g transform="translate(238.780129, 234.271888)"><g><path d="M 1.199219 0 L 7.449219 0 L 9.023438 -10.140625 L 14.113281 -10.140625 L 20.15625 0 L 26.90625 0 L 20.15625 -10.886719 C 23.882812 -11.960938 26.90625 -14.363281 27.691406 -19.164062 C 28.851562 -26.65625 22.972656 -28.972656 17.589844 -28.972656 L 5.792969 -28.972656 Z M 9.851562 -15.316406 L 11.175781 -23.511719 L 17.136719 -23.511719 C 19.785156 -23.511719 21.855469 -22.558594 21.359375 -19.496094 C 20.902344 -16.640625 18.417969 -15.316406 15.6875 -15.316406 Z M 9.851562 -15.316406 "/></g></g></g><g fill="#000000" fill-opacity="1"><g transform="translate(137.451433, 255.223402)"><g><path d="M 2.296875 0 L 3.078125 0 L 6.6875 -6.300781 L 5.851562 -6.300781 L 2.789062 -0.847656 L 1.46875 -6.300781 L 0.683594 -6.300781 Z M 2.296875 0 "/></g></g></g><g fill="#000000" fill-opacity="1"><g transform="translate(144.552471, 255.223402)"><g><path d="M 0.421875 0 L 4.726562 0 L 4.84375 -0.71875 L 1.296875 -0.71875 L 1.628906 -2.816406 L 4.851562 -2.816406 L 4.960938 -3.535156 L 1.738281 -3.535156 L 2.0625 -5.578125 L 5.554688 -5.578125 L 5.671875 -6.300781 L 1.421875 -6.300781 Z M 0.421875 0 "/></g></g></g><g fill="#000000" fill-opacity="1"><g transform="translate(151.041513, 255.223402)"><g><path d="M 0.421875 0 L 1.179688 0 L 1.890625 -4.472656 C 1.917969 -4.660156 1.945312 -4.832031 1.972656 -5.101562 L 5.03125 0 L 5.671875 0 L 6.667969 -6.300781 L 5.914062 -6.300781 L 5.203125 -1.835938 C 5.175781 -1.636719 5.148438 -1.476562 5.121094 -1.207031 L 2.0625 -6.300781 L 1.421875 -6.300781 Z M 0.421875 0 "/></g></g></g><g fill="#000000" fill-opacity="1"><g transform="translate(158.862555, 255.223402)"><g><path d="M 1.917969 0 L 2.671875 0 L 3.554688 -5.578125 L 5.769531 -5.578125 L 5.886719 -6.300781 L 0.703125 -6.300781 L 0.585938 -5.578125 L 2.800781 -5.578125 Z M 1.917969 0 "/></g></g></g><g fill="#000000" fill-opacity="1"><g transform="translate(165.189595, 255.223402)"><g><path d="M 0.421875 0 L 4.726562 0 L 4.84375 -0.71875 L 1.296875 -0.71875 L 1.628906 -2.816406 L 4.851562 -2.816406 L 4.960938 -3.535156 L 1.738281 -3.535156 L 2.0625 -5.578125 L 5.554688 -5.578125 L 5.671875 -6.300781 L 1.421875 -6.300781 Z M 0.421875 0 "/></g></g></g><g fill="#000000" fill-opacity="1"><g transform="translate(171.678638, 255.223402)"><g/></g></g><g fill="#000000" fill-opacity="1"><g transform="translate(174.837657, 255.223402)"><g><path d="M 0.421875 0 L 2.511719 0 C 4.804688 0 6.03125 -1.304688 6.316406 -3.105469 C 6.605469 -4.941406 5.605469 -6.300781 3.472656 -6.300781 L 1.421875 -6.300781 Z M 1.296875 -0.71875 L 2.0625 -5.578125 L 3.394531 -5.578125 C 5.09375 -5.578125 5.804688 -4.6875 5.5625 -3.195312 C 5.320312 -1.664062 4.292969 -0.71875 2.59375 -0.71875 Z M 1.296875 -0.71875 "/></g></g></g><g fill="#000000" fill-opacity="1"><g transform="translate(182.3887, 255.223402)"><g><path d="M 0.421875 0 L 4.726562 0 L 4.84375 -0.71875 L 1.296875 -0.71875 L 1.628906 -2.816406 L 4.851562 -2.816406 L 4.960938 -3.535156 L 1.738281 -3.535156 L 2.0625 -5.578125 L 5.554688 -5.578125 L 5.671875 -6.300781 L 1.421875 -6.300781 Z M 0.421875 0 "/></g></g></g><g fill="#000000" fill-opacity="1"><g transform="translate(188.877739, 255.223402)"><g/></g></g><g fill="#000000" fill-opacity="1"><g transform="translate(192.036755, 255.223402)"><g><path d="M 2.296875 0 L 3.078125 0 L 6.6875 -6.300781 L 5.851562 -6.300781 L 2.789062 -0.847656 L 1.46875 -6.300781 L 0.683594 -6.300781 Z M 2.296875 0 "/></g></g></g><g fill="#000000" fill-opacity="1"><g transform="translate(199.137791, 255.223402)"><g><path d="M 3.285156 0.109375 C 5.5625 0.109375 6.796875 -1.492188 7.054688 -3.105469 C 7.316406 -4.753906 6.289062 -6.40625 4.246094 -6.40625 C 2.0625 -6.40625 0.738281 -4.804688 0.476562 -3.195312 C 0.214844 -1.546875 1.242188 0.109375 3.285156 0.109375 Z M 3.328125 -0.613281 C 1.636719 -0.613281 1.042969 -1.960938 1.234375 -3.148438 C 1.441406 -4.464844 2.476562 -5.6875 4.203125 -5.6875 C 5.894531 -5.6875 6.488281 -4.339844 6.300781 -3.148438 C 6.09375 -1.835938 5.058594 -0.613281 3.328125 -0.613281 Z M 3.328125 -0.613281 "/></g></g></g><g fill="#000000" fill-opacity="1"><g transform="translate(207.408836, 255.223402)"><g><path d="M 0.421875 0 L 1.179688 0 L 2.179688 -6.300781 L 1.421875 -6.300781 Z M 0.421875 0 "/></g></g></g><g fill="#000000" fill-opacity="1"><g transform="translate(210.738849, 255.223402)"><g><path d="M 1.917969 0 L 2.671875 0 L 3.554688 -5.578125 L 5.769531 -5.578125 L 5.886719 -6.300781 L 0.703125 -6.300781 L 0.585938 -5.578125 L 2.800781 -5.578125 Z M 1.917969 0 "/></g></g></g><g fill="#000000" fill-opacity="1"><g transform="translate(217.065886, 255.223402)"><g><path d="M 3.058594 0.109375 C 4.4375 0.109375 5.6875 -0.476562 5.976562 -2.277344 L 6.613281 -6.300781 L 5.859375 -6.300781 L 5.238281 -2.367188 C 5.03125 -1.089844 4.203125 -0.613281 3.050781 -0.613281 C 1.980469 -0.613281 1.269531 -1.035156 1.476562 -2.3125 L 2.105469 -6.300781 L 1.351562 -6.300781 L 0.71875 -2.332031 C 0.433594 -0.53125 1.636719 0.109375 3.058594 0.109375 Z M 3.058594 0.109375 "/></g></g></g><g fill="#000000" fill-opacity="1"><g transform="translate(224.760927, 255.223402)"><g><path d="M 0.421875 0 L 1.179688 0 L 1.574219 -2.484375 L 3.132812 -2.484375 L 4.796875 0 L 5.6875 0 L 3.976562 -2.546875 C 4.90625 -2.710938 5.761719 -3.203125 5.941406 -4.347656 C 6.164062 -5.804688 5.003906 -6.300781 3.871094 -6.300781 L 1.421875 -6.300781 Z M 1.691406 -3.203125 L 2.0625 -5.578125 L 3.824219 -5.578125 C 4.582031 -5.578125 5.335938 -5.363281 5.183594 -4.4375 C 5.03125 -3.484375 4.222656 -3.203125 3.421875 -3.203125 Z M 1.691406 -3.203125 "/></g></g></g><g fill="#000000" fill-opacity="1"><g transform="translate(231.933969, 255.223402)"><g><path d="M 0.421875 0 L 4.726562 0 L 4.84375 -0.71875 L 1.296875 -0.71875 L 1.628906 -2.816406 L 4.851562 -2.816406 L 4.960938 -3.535156 L 1.738281 -3.535156 L 2.0625 -5.578125 L 5.554688 -5.578125 L 5.671875 -6.300781 L 1.421875 -6.300781 Z M 0.421875 0 "/></g></g></g></svg>