<svg xmlns="http://www.w3.org/2000/svg" xmlns:xlink="http://www.w3.org/1999/xlink" width="500" zoomAndPan="magnify" viewBox="0 0 375 374.999991" height="500" preserveAspectRatio="xMidYMid meet" version="1.0"><defs><g/></defs><g fill="#000000" fill-opacity="1"><g transform="translate(106.953431, 198.588196)"><g><path d="M 15.730469 0.578125 C 18.832031 0.578125 22.226562 -0.0429688 25.207031 -1.324219 L 27.484375 -15.769531 L 21.523438 -15.769531 L 19.867188 -5.464844 C 18.917969 -5.089844 17.757812 -4.882812 16.390625 -4.882812 C 12.417969 -4.882812 7.035156 -6.746094 8.238281 -14.28125 C 9.3125 -21.191406 15.355469 -24.007812 20.28125 -24.007812 C 23.222656 -24.007812 25.910156 -23.304688 27.609375 -21.9375 L 28.519531 -27.609375 C 26.160156 -28.808594 23.222656 -29.554688 19.785156 -29.554688 C 12.375 -29.554688 3.601562 -25.332031 1.945312 -14.984375 C 0.25 -4.140625 7.742188 0.578125 15.730469 0.578125 Z M 15.730469 0.578125 "/></g></g></g><g fill="#000000" fill-opacity="1"><g transform="translate(133.85685, 198.588196)"><g><path d="M -1.78125 0 L 4.800781 0 L 7.742188 -5.382812 L 21.027344 -5.382812 L 22.269531 0 L 28.5625 0 L 21.359375 -28.972656 L 14.613281 -28.972656 Z M 10.554688 -10.597656 L 16.183594 -20.777344 C 16.558594 -21.441406 16.886719 -22.1875 17.261719 -23.261719 C 17.300781 -22.1875 17.382812 -21.398438 17.550781 -20.738281 L 19.867188 -10.597656 Z M 10.554688 -10.597656 "/></g></g></g><g fill="#000000" fill-opacity="1"><g transform="translate(162.41587, 198.588196)"><g><path d="M 10.96875 0.578125 C 16.765625 0.578125 22.019531 -1.242188 23.136719 -7.492188 C 24.875 -17.632812 9.066406 -16.351562 9.644531 -21.277344 C 9.894531 -23.179688 11.796875 -24.050781 15.109375 -24.089844 C 17.921875 -24.132812 20.945312 -23.34375 23.261719 -21.566406 L 24.089844 -27.152344 C 21.898438 -28.5625 18.503906 -29.554688 14.941406 -29.554688 C 9.5625 -29.554688 4.222656 -27.152344 3.351562 -21.773438 C 1.78125 -11.671875 17.632812 -13.371094 16.765625 -7.699219 C 16.472656 -5.710938 14.199219 -4.882812 10.804688 -4.882812 C 7.65625 -4.882812 4.261719 -5.671875 1.28125 -7.863281 L 0.371094 -2.109375 C 3.0625 -0.457031 6.789062 0.578125 10.96875 0.578125 Z M 10.96875 0.578125 "/></g></g></g><g fill="#000000" fill-opacity="1"><g transform="translate(185.345818, 198.588196)"><g><path d="M 15.398438 0.578125 C 18.253906 0.578125 21.234375 0.0429688 23.71875 -1.160156 L 24.667969 -7.367188 C 22.476562 -5.878906 19.621094 -4.96875 16.722656 -4.96875 C 11.960938 -4.96875 7.160156 -7.949219 8.195312 -14.488281 C 9.273438 -21.277344 15.316406 -24.007812 20.28125 -24.007812 C 22.808594 -24.007812 25.207031 -23.261719 26.78125 -21.898438 L 27.648438 -27.441406 C 25.332031 -28.851562 22.722656 -29.554688 19.539062 -29.554688 C 12.542969 -29.554688 3.519531 -24.960938 1.945312 -15.066406 C 0.25 -4.46875 7.949219 0.578125 15.398438 0.578125 Z M 15.398438 0.578125 "/></g></g></g><g fill="#000000" fill-opacity="1"><g transform="translate(210.221109, 198.588196)"><g><path d="M -1.78125 0 L 4.800781 0 L 7.742188 -5.382812 L 21.027344 -5.382812 L 22.269531 0 L 28.5625 0 L 21.359375 -28.972656 L 14.613281 -28.972656 Z M 10.554688 -10.597656 L 16.183594 -20.777344 C 16.558594 -21.441406 16.886719 -22.1875 17.261719 -23.261719 C 17.300781 -22.1875 17.382812 -21.398438 17.550781 -20.738281 L 19.867188 -10.597656 Z M 10.554688 -10.597656 "/></g></g></g><g fill="#000000" fill-opacity="1"><g transform="translate(238.780129, 198.588196)"><g><path d="M 1.199219 0 L 7.449219 0 L 9.023438 -10.140625 L 14.113281 -10.140625 L 20.15625 0 L 26.90625 0 L 20.15625 -10.886719 C 23.882812 -11.960938 26.90625 -14.363281 27.691406 -19.164062 C 28.851562 -26.65625 22.972656 -28.972656 17.589844 -28.972656 L 5.792969 -28.972656 Z M 9.851562 -15.316406 L 11.175781 -23.511719 L 17.136719 -23.511719 C 19.785156 -23.511719 21.855469 -22.558594 21.359375 -19.496094 C 20.902344 -16.640625 18.417969 -15.316406 15.6875 -15.316406 Z M 9.851562 -15.316406 "/></g></g></g></svg>